<?xml version="1.0" standalone="no"?><!DOCTYPE svg PUBLIC "-//W3C//DTD SVG 1.1//EN" "http://www.w3.org/Graphics/SVG/1.1/DTD/svg11.dtd">
<svg t="1752919780495" class="icon" viewBox="0 0 1194 1024" version="1.1" xmlns="http://www.w3.org/2000/svg" p-id="2930" width="233.203125" height="200">
    <path d="M1009.700211 519.316143A504.483903 504.483903 0 1 1 505.404057 14.83224a504.483903 504.483903 0 0 1 504.296154 504.483903z" fill="#FDDF6D" p-id="2931"></path>
    <path d="M613.360233 949.263348a504.296153 504.296153 0 0 1-337.949768-879.232646 504.483903 504.483903 0 1 0 566.816861 824.221933 503.732904 503.732904 0 0 1-229.430342 55.010713z" fill="#FCC56B" p-id="2932"></path>
    <path d="M433.683607 582.0246a195.072116 195.072116 0 0 1-120.535418-34.170477A20.464736 20.464736 0 0 1 338.869922 516.312145a159.77514 159.77514 0 0 0 93.874935 24.782983 168.974884 168.974884 0 0 0 95.564685-25.158483 20.464736 20.464736 0 1 1 25.158482 32.480728A204.647359 204.647359 0 0 1 433.683607 582.0246zM789.469612 582.0246a195.072116 195.072116 0 0 1-120.535417-34.170477 20.276986 20.276986 0 0 1-2.628498-28.91348A20.652486 20.652486 0 0 1 695.594677 516.312145a159.39964 159.39964 0 0 0 93.874935 24.782983 168.974884 168.974884 0 0 0 95.564684-25.158483 20.464736 20.464736 0 1 1 25.158483 32.480728A205.022859 205.022859 0 0 1 789.469612 582.0246zM690.90093 810.328443a84.111942 84.111942 0 1 1-84.111942-84.111942 84.111942 84.111942 0 0 1 84.111942 84.111942z" fill="#7F184C" p-id="2933"></path>
    <path d="M610.168485 442.714196a21.027986 21.027986 0 0 1-13.70574-5.069247 20.464736 20.464736 0 0 1-5.632496-22.154485l22.717734-65.524705-43.37022 22.905485a20.464736 20.464736 0 0 1-18.774987-36.235725l89.368938-47.500718a20.652486 20.652486 0 0 1 29.10123 24.970733l-23.656483 68.340953 35.484725-17.085238a20.652486 20.652486 0 1 1 17.648488 37.549974l-79.793695 37.549974a20.652486 20.652486 0 0 1-8.824244 1.877499zM810.873097 351.467758a20.652486 20.652486 0 0 1-18.774987-27.223731l38.676474-113.964172-80.732445 42.806971a20.464736 20.464736 0 0 1-27.786981-9.011994 20.652486 20.652486 0 0 1 8.448744-27.786981L857.622815 150.199897a20.464736 20.464736 0 0 1 29.10123 24.782983L845.794573 290.261301l86.177191-42.431471a20.276986 20.276986 0 0 1 27.411481 9.199743 20.464736 20.464736 0 0 1-9.199743 27.599231l-131.42491 64.585956a20.089236 20.089236 0 0 1-9.199744 2.252998zM1030.352697 247.64208a21.215735 21.215735 0 0 1-13.705741-5.256997 20.276986 20.276986 0 0 1-5.632496-21.966734l54.259713-157.334392-114.715172 60.830958a20.464736 20.464736 0 0 1-18.774987-36.235725L1092.122404 2.440748a20.464736 20.464736 0 0 1 28.91348 24.782983L1065.837422 187.749871 1164.969354 139.685904a20.464736 20.464736 0 1 1 17.648488 37.549974l-143.440902 68.340953a21.027986 21.027986 0 0 1-8.824243 2.065249z"
          fill="#0DAED3" p-id="2934"></path>
    <path d="M613.547983 98.944182c56.324961 15.770989 93.874935 54.071963 85.238441 85.238441s-61.394208 43.74572-117.343669 27.974731-93.874935-54.071963-85.238441-85.238441 61.394208-43.74572 117.343669-27.974731z" fill="#FCEB88" p-id="2935"></path>
</svg>